<svg width="40" height="38" viewBox="0 0 40 38" fill="none" xmlns="http://www.w3.org/2000/svg">
<path d="M3.34473 6.73714H37.3864L32.0114 25.6857H8.71973L3.34473 6.73714ZM3.34473 6.73714L2.00098 2M15.8721 16.2114H19.4554M19.4554 16.2114H23.0387M19.4554 16.2114V12.4217M19.4554 16.2114V20.0011M17.6781 32.3177C17.6781 33.0715 17.3949 33.7944 16.8909 34.3275C16.3869 34.8605 15.7033 35.16 14.9906 35.16C14.2778 35.16 13.5942 34.8605 13.0902 34.3275C12.5862 33.7944 12.3031 33.0715 12.3031 32.3177M28.4281 32.3177C28.4281 33.0715 28.1449 33.7944 27.6409 34.3275C27.1369 34.8605 26.4533 35.16 25.7406 35.16C25.0278 35.16 24.3442 34.8605 23.8402 34.3275C23.3362 33.7944 23.0531 33.0715 23.0531 32.3177" stroke="#002B59" stroke-width="4" stroke-linecap="round" stroke-linejoin="round"/>
</svg>
