<svg width="85" height="91" viewBox="0 0 85 91" fill="none" xmlns="http://www.w3.org/2000/svg">
<path d="M4.61429 25.0705C8.22408 17.5336 13.7597 11.1978 20.603 6.77069C27.4462 2.34358 35.3277 -0.000575516 43.3674 1.05985e-07C55.0549 1.05985e-07 64.8732 4.50905 72.3801 11.8528L59.9467 24.9022C55.4495 20.3931 49.7337 18.0954 43.3674 18.0954C32.0702 18.0954 22.5077 26.1034 19.1033 36.855C18.236 39.585 17.7416 42.497 17.7416 45.5C17.7416 48.503 18.236 51.415 19.1033 54.145C22.512 64.9012 32.0702 72.9047 43.3674 72.9047C49.2003 72.9047 54.1658 71.2894 58.0515 68.5594C60.3042 67.0033 62.2327 64.9841 63.7205 62.6239C65.2083 60.2637 66.2245 57.6114 66.7077 54.8275H43.3674V37.2281H84.2107C84.7225 40.2038 85 43.3069 85 46.5329C85 60.3922 80.273 72.0583 72.0679 79.9753C64.8949 86.9277 55.0765 91 43.3674 91C37.6716 91.0024 32.0313 89.8271 26.7687 87.5414C21.5061 85.2557 16.7244 81.9042 12.6969 77.6787C8.66944 73.4532 5.47511 68.4363 3.2965 62.9149C1.1179 57.3935 -0.00227618 51.4758 3.47249e-06 45.5C3.47249e-06 38.1563 1.67398 31.213 4.61429 25.0705Z" fill="#E6E6E6"/>
</svg>
