<svg width="90" height="90" viewBox="0 0 90 90" fill="none" xmlns="http://www.w3.org/2000/svg">
<path d="M29.25 7.5H60.75C72.75 7.5 82.5 17.25 82.5 29.25V60.75C82.5 66.5185 80.2085 72.0507 76.1296 76.1296C72.0507 80.2085 66.5185 82.5 60.75 82.5H29.25C17.25 82.5 7.5 72.75 7.5 60.75V29.25C7.5 23.4815 9.79151 17.9493 13.8704 13.8704C17.9493 9.79151 23.4815 7.5 29.25 7.5ZM28.5 15C24.9196 15 21.4858 16.4223 18.9541 18.9541C16.4223 21.4858 15 24.9196 15 28.5V61.5C15 68.9625 21.0375 75 28.5 75H61.5C65.0804 75 68.5142 73.5777 71.0459 71.0459C73.5777 68.5142 75 65.0804 75 61.5V28.5C75 21.0375 68.9625 15 61.5 15H28.5ZM64.6875 20.625C65.9307 20.625 67.123 21.1189 68.0021 21.9979C68.8811 22.877 69.375 24.0693 69.375 25.3125C69.375 26.5557 68.8811 27.748 68.0021 28.6271C67.123 29.5061 65.9307 30 64.6875 30C63.4443 30 62.252 29.5061 61.3729 28.6271C60.4939 27.748 60 26.5557 60 25.3125C60 24.0693 60.4939 22.877 61.3729 21.9979C62.252 21.1189 63.4443 20.625 64.6875 20.625ZM45 26.25C49.9728 26.25 54.7419 28.2254 58.2583 31.7417C61.7746 35.2581 63.75 40.0272 63.75 45C63.75 49.9728 61.7746 54.7419 58.2583 58.2583C54.7419 61.7746 49.9728 63.75 45 63.75C40.0272 63.75 35.2581 61.7746 31.7417 58.2583C28.2254 54.7419 26.25 49.9728 26.25 45C26.25 40.0272 28.2254 35.2581 31.7417 31.7417C35.2581 28.2254 40.0272 26.25 45 26.25ZM45 33.75C42.0163 33.75 39.1548 34.9353 37.045 37.045C34.9353 39.1548 33.75 42.0163 33.75 45C33.75 47.9837 34.9353 50.8452 37.045 52.955C39.1548 55.0647 42.0163 56.25 45 56.25C47.9837 56.25 50.8452 55.0647 52.955 52.955C55.0647 50.8452 56.25 47.9837 56.25 45C56.25 42.0163 55.0647 39.1548 52.955 37.045C50.8452 34.9353 47.9837 33.75 45 33.75Z" fill="#E6E6E6"/>
</svg>
