<svg width="80" height="84" viewBox="0 0 80 84" fill="none" xmlns="http://www.w3.org/2000/svg">
<path opacity="0.4" d="M71.1111 0C73.4686 0 75.7295 0.98333 77.3965 2.73367C79.0635 4.48401 80 6.85798 80 9.33333V74.6667C80 77.142 79.0635 79.516 77.3965 81.2663C75.7295 83.0167 73.4686 84 71.1111 84H8.88889C6.53141 84 4.27048 83.0167 2.60349 81.2663C0.936505 79.516 0 77.142 0 74.6667V9.33333C0 6.85798 0.936505 4.48401 2.60349 2.73367C4.27048 0.98333 6.53141 0 8.88889 0H71.1111ZM68.8889 72.3333V47.6C68.8889 43.5652 67.3624 39.6956 64.6452 36.8425C61.928 33.9895 58.2427 32.3867 54.4 32.3867C50.6222 32.3867 46.2222 34.8133 44.0889 38.4533V33.2733H31.6889V72.3333H44.0889V49.3267C44.0889 45.7333 46.8444 42.7933 50.2667 42.7933C51.9169 42.7933 53.4996 43.4817 54.6664 44.7069C55.8333 45.9321 56.4889 47.5939 56.4889 49.3267V72.3333H68.8889ZM17.2444 25.9467C19.2247 25.9467 21.1239 25.1207 22.5242 23.6504C23.9244 22.1801 24.7111 20.186 24.7111 18.1067C24.7111 13.7667 21.3778 10.22 17.2444 10.22C15.2524 10.22 13.3419 11.0509 11.9333 12.53C10.5247 14.009 9.73333 16.015 9.73333 18.1067C9.73333 22.4467 13.1111 25.9467 17.2444 25.9467ZM23.4222 72.3333V33.2733H11.1111V72.3333H23.4222Z" fill="#E6E6E6"/>
</svg>
