<svg width="87" height="87" viewBox="0 0 87 87" fill="none" xmlns="http://www.w3.org/2000/svg">
<path d="M14.5 72.5C12.5062 72.5 10.8001 71.7907 9.3815 70.3721C7.96292 68.9535 7.25242 67.2462 7.25 65.25V21.75C7.25 19.7562 7.9605 18.0501 9.3815 16.6315C10.8025 15.2129 12.5087 14.5024 14.5 14.5H72.5C74.4938 14.5 76.2011 15.2105 77.6221 16.6315C79.0431 18.0525 79.7524 19.7587 79.75 21.75V65.25C79.75 67.2438 79.0407 68.9511 77.6221 70.3721C76.2035 71.7931 74.4962 72.5024 72.5 72.5H14.5ZM44.4534 46.3565C44.7845 46.2647 45.101 46.1281 45.4031 45.9469L71.05 29.9062C71.5333 29.6042 71.8958 29.2272 72.1375 28.7753C72.3792 28.3233 72.5 27.8243 72.5 27.2781C72.5 26.0698 71.9865 25.1635 70.9594 24.5594C69.9323 23.9552 68.875 23.9854 67.7875 24.65L43.5 39.875L19.2125 24.65C18.125 23.9854 17.0677 23.9709 16.0406 24.6065C15.0135 25.2421 14.5 26.1326 14.5 27.2781C14.5 27.8823 14.6208 28.4115 14.8625 28.8659C15.1042 29.3202 15.4667 29.667 15.95 29.9062L41.5969 45.9469C41.899 46.1281 42.2168 46.2647 42.5503 46.3565C42.8838 46.4483 43.2003 46.493 43.5 46.4906C43.7997 46.4882 44.1175 46.4435 44.4534 46.3565Z" fill="#0D99FF"/>
</svg>
