<svg width="93" height="93" viewBox="0 0 93 93" fill="none" xmlns="http://www.w3.org/2000/svg">
<path d="M25.6525 41.8113C31.2325 52.7775 40.2225 61.7287 51.1888 67.3475L59.7137 58.8225C60.76 57.7763 62.31 57.4275 63.6663 57.8925C68.0063 59.3262 72.695 60.1012 77.5 60.1012C79.6312 60.1012 81.375 61.845 81.375 63.9762V77.5C81.375 79.6312 79.6312 81.375 77.5 81.375C41.1137 81.375 11.625 51.8862 11.625 15.5C11.625 13.3687 13.3687 11.625 15.5 11.625H29.0625C31.1938 11.625 32.9375 13.3687 32.9375 15.5C32.9375 20.3438 33.7125 24.9938 35.1462 29.3337C35.5725 30.69 35.2625 32.2013 34.1775 33.2863L25.6525 41.8113Z" fill="#0D99FF"/>
</svg>
