<svg width="84" height="84" viewBox="0 0 84 84" fill="none" xmlns="http://www.w3.org/2000/svg">
<path d="M16.0789 17.4434C16.7126 17.3698 17.3544 17.4707 17.9348 17.7354C18.5153 18 19.0124 18.4183 19.3724 18.9449C24.5384 26.5014 30.7404 29.6444 37.6249 30.3584C37.9609 27.4149 38.7554 24.5064 40.2499 21.9444C42.4409 18.1854 46.0039 15.4204 51.0929 14.3984C58.1279 12.9844 63.4829 15.5324 66.5874 18.6509L72.8594 17.4784C73.5157 17.3554 74.1935 17.4228 74.8128 17.6725C75.4321 17.9222 75.9671 18.3438 76.3545 18.8877C76.742 19.4315 76.9658 20.0749 76.9995 20.7417C77.0333 21.4086 76.8755 22.0713 76.5449 22.6514L70.5249 33.2284C71.0744 48.4919 66.8324 59.1459 57.7884 66.4854C52.9934 70.3774 46.1264 72.5859 38.5909 73.2684C30.9959 73.9544 22.4104 73.1249 13.8774 70.6329C13.1483 70.4203 12.5082 69.9762 12.0536 69.3678C11.5991 68.7594 11.3548 68.0197 11.3575 67.2602C11.3603 66.5007 11.61 65.7628 12.069 65.1577C12.528 64.5526 13.1713 64.1133 13.9019 63.9059C18.1929 62.6844 21.4619 61.6309 24.4124 59.7864C20.2159 57.5604 17.1254 54.6484 14.9379 51.3304C11.8999 46.7174 10.7729 41.5724 10.5489 36.9349C10.3249 32.2974 10.9934 27.9994 11.7004 24.9019C12.1029 23.1344 12.5719 21.3634 13.2194 19.6694C13.4478 19.0723 13.8354 18.5491 14.3401 18.1567C14.8448 17.7643 15.4439 17.5176 16.0789 17.4434Z" fill="#E6E6E6"/>
</svg>
